<?xml version="1.0" encoding="UTF-8"?><svg id="Layer_1" xmlns="http://www.w3.org/2000/svg" xmlns:xlink="http://www.w3.org/1999/xlink" viewBox="0 0 171.19 80"><defs><linearGradient id="linear-gradient" x1="25.59" y1="25.05" x2="25.59" y2="16.03" gradientUnits="userSpaceOnUse"><stop offset="0" stop-color="#a458fa"/><stop offset=".16" stop-color="#9f55f3"/><stop offset=".4" stop-color="#924fdf"/><stop offset=".69" stop-color="#7d44bf"/><stop offset="1" stop-color="#623695"/></linearGradient><linearGradient id="linear-gradient-2" x1="8.4" y1="38.66" x2="8.4" y2="19.18" xlink:href="#linear-gradient"/><linearGradient id="linear-gradient-3" x1="37.44" y1="12.76" x2="37.44" y2="0" xlink:href="#linear-gradient"/><linearGradient id="linear-gradient-4" x1="47.5" y1="20.92" x2="47.5" y2="10.32" xlink:href="#linear-gradient"/><linearGradient id="linear-gradient-5" y1="2562.62" y2="2553.6" gradientTransform="translate(0 2617.57) scale(1 -1)" xlink:href="#linear-gradient"/><linearGradient id="linear-gradient-6" x1="8.4" y1="2576.23" x2="8.4" y2="2556.75" gradientTransform="translate(0 2617.57) scale(1 -1)" xlink:href="#linear-gradient"/><linearGradient id="linear-gradient-7" x1="37.44" y1="2550.33" x2="37.44" y2="2537.57" gradientTransform="translate(0 2617.57) scale(1 -1)" xlink:href="#linear-gradient"/><linearGradient id="linear-gradient-8" x1="47.5" y1="2558.49" x2="47.5" y2="2547.89" gradientTransform="translate(0 2617.57) scale(1 -1)" xlink:href="#linear-gradient"/></defs><g><path d="M102.99,46.63c.98-4.74,1.99-9.48,2.93-14.23,.21-1.08,.68-1.59,1.81-1.52,1.05,.06,2.1-.02,3.15,.01,1.31,.04,1.72,.55,1.42,1.8-1.78,7.44-3.6,14.86-5.36,22.3-.28,1.19-.9,1.66-2.11,1.61-1.24-.06-2.48-.03-3.72,.02-1.2,.05-1.78-.43-2.06-1.64-.97-4.16-2.05-8.3-3.09-12.44-.04-.16-.11-.32-.41-.49-.54,2.33-1.08,4.67-1.61,7-.45,1.99-.89,3.99-1.29,5.99-.22,1.11-.78,1.64-1.97,1.58-1.38-.07-2.78,.09-4.15-.08-.55-.07-1.34-.65-1.47-1.14-2.01-7.57-3.94-15.17-5.85-22.77-.31-1.24,.16-1.75,1.46-1.79,.52-.02,1.05,0,1.58,0,3.15,0,2.9-.39,3.62,3,.9,4.22,1.79,8.45,3.02,12.73,.13-.49,.28-.99,.4-1.48,.97-4.21,1.98-8.42,2.89-12.64,.26-1.21,.8-1.72,2.04-1.63,1.05,.08,2.11,.1,3.15,0,1.28-.12,1.76,.47,2.02,1.64,.99,4.45,2.05,8.88,3.1,13.32,.07,.31,.19,.6,.29,.9,.07-.01,.15-.02,.22-.04Z" fill="#fff"/><path d="M131.5,46.8v3.86c.48,.03,.94,.08,1.39,.08,3.82,0,7.64,.02,11.46-.06,1.39-.03,1.93,.46,1.84,1.82-.06,.9-.04,1.81-.02,2.71,.01,.97-.53,1.4-1.42,1.4-5.3-.01-10.6-.02-15.9-.08-1.16-.01-3.34-2.3-3.35-3.48-.03-6.23-.03-12.45,0-18.68,0-1.3,2.34-3.49,3.65-3.5,4.49-.01,8.98-.01,13.47,0,1.49,0,3.66,2.06,3.69,3.56,.05,3.04,.06,6.08,.03,9.12-.01,1.45-2.06,3.26-3.55,3.26-3.71,0-7.43,0-11.28,0Zm8.75-9.98h-8.72v4.01h8.72v-4.01Z" fill="#fff"/><path d="M70.57,40.13v-3.3c-.53-.03-1-.07-1.46-.07-3.39-.02-6.79-.02-10.18-.03-1.83,0-2.02-.2-2.04-2.06,0-.76,0-1.52,0-2.28-.02-.95,.49-1.43,1.39-1.44,4.92-.05,9.85-.1,14.77-.09,1.25,0,3.59,2.52,3.59,3.78,.04,6.85,.05,13.7,.1,20.55,0,1.08-.5,1.43-1.5,1.38-.95-.04-1.92-.07-2.87,0-1.11,.08-1.88-.24-2.05-1.56-3.35,2.69-7.2,1.24-10.82,1.48-1.11,.07-3.1-2.36-3.1-3.53,0-3.04,0-6.09,.04-9.13,.02-1.55,2.36-3.69,3.91-3.69,3.34,.01,6.68,0,10.21,0Zm-8.13,10.35h8.07v-4.5h-8.07v4.5Z" fill="#fff"/><path d="M150.31,43.62c0-2.95-.01-5.9,0-8.85,0-1.7,2.15-3.85,3.88-3.87,4.44-.05,8.89-.07,13.33-.08,1.4,0,3.65,2.27,3.65,3.82,.02,6.13,0,12.27-.04,18.4-.01,1.41-2.34,3.5-3.77,3.5-4.4,0-8.79,0-13.19-.02-1.62,0-3.79-2.17-3.8-3.78-.02-3.04,0-6.09,0-9.13-.02,0-.04,0-.06,0Zm6.08,6.99h8.61v-13.84h-8.61v13.84Z" fill="#fff"/><path d="M121.53,37.79c0,5.66,0,11.32,0,16.97,0,1.75-.17,1.9-1.87,1.86-.76-.02-1.53-.03-2.29-.04-1.87-.02-1.96-.11-1.97-1.92,0-9.18-.01-18.35-.02-27.53,0-2.19,.05-4.38-.03-6.56-.05-1.32,.49-1.82,1.78-1.73,.9,.06,1.82,.05,2.72,0,1.24-.07,1.69,.47,1.68,1.69-.04,5.75-.02,11.51-.02,17.26h.02Z" fill="#fff"/><path d="M45.77,38.38c0,3.86,0,7.66,0,11.45,0,1.84-.09,1.92-1.94,1.96-4.53,.08-4.08,.5-4.1-3.96-.02-5.04-.03-10.07-.03-15.11,0-1.68,.21-1.88,1.91-1.88,.57,0,1.15,0,1.72,.01q2.3,0,2.57,2.44c.61-.41,1.26-.67,1.63-1.15,1.38-1.8,3.28-1.15,5.02-1.12,.25,0,.66,.64,.7,1.02,.1,.84,.01,1.71,0,2.56-.02,2.03-.11,2.19-2.15,2.67-1.71,.4-3.45,.72-5.34,1.11Z" fill="#fff"/></g><g><g><path d="M29.12,25.03c-2.58,0-5.16,.06-7.73-.04-.72-.03-1.59-.36-2.12-.85-2.09-1.96-4.09-4.03-6.08-6.1-.31-.33-.64-.99-.51-1.31,.15-.34,.82-.65,1.26-.65,5.39-.06,10.79-.08,16.18-.04,.55,0,1.23,.3,1.64,.69,2.09,1.96,4.14,3.98,6.15,6.03,.36,.36,.76,1.19,.6,1.44-.27,.41-.98,.71-1.51,.72" fill="url(#linear-gradient)"/><path d="M16.31,26.4c.69,.73,.63,1.9-.14,2.54-1.87,1.57-3.77,3.15-5.66,4.75-1.5,1.27-3.07,2.46-4.43,3.86-1.59,1.62-3.47,1.02-5.24,.89-.88-.07-1.08-.83-.58-1.86,.19-.39,.54-1.2,.72-1.59,2.34-4.84,4.62-9.44,6.95-14.29,.92-1.92,1.08-1.94,2.51-.44,1.93,2.02,3.86,4.05,5.86,6.15Z" fill="url(#linear-gradient-2)"/><path d="M41.59,5.91c-1.53,0-3.06,.06-4.58-.02-1.1-.06-1.74,.29-2.17,1.36-.63,1.55-1.45,3.02-2.17,4.54-.35,.73-.83,.94-1.68,.98-1.15,0-2.1,.02-3.15-.06-1.17-.08-1.51-.66-1.01-1.74,1.49-3.22,3.04-6.41,4.54-9.62,.39-.83,.96-1.21,1.9-1.21C37.7,.12,42.15,.07,46.59,0c1.15-.02,1.67,.52,1.67,1.64,0,4.83,.42,4.21-3.77,4.24" fill="url(#linear-gradient-3)"/><path d="M49.29,10.33c2.25,0,4.49,.03,6.74-.01,1.1-.02,1.59,.46,1.6,1.53,.03,5.04,.44,4.2-3.83,4.25-2.72,.03-5.45,.04-8.17,0-.8-.01-1.33,.19-1.74,.93-.63,1.13-1.36,2.2-2.06,3.29-.46,.74-.94,.76-1.63,.19-3.63-3.01-3.55-3.04-1.09-6.99,1.43-2.3,2.51-3.24,5.88-3.16" fill="url(#linear-gradient-4)"/></g><g><path d="M29.12,54.97c-2.58,0-5.16-.06-7.73,.04-.72,.03-1.59,.36-2.12,.85-2.09,1.96-4.09,4.03-6.08,6.1-.31,.33-.64,.99-.51,1.31,.15,.34,.82,.65,1.26,.65,5.39,.06,10.79,.08,16.18,.04,.55,0,1.23-.3,1.64-.69,2.09-1.96,4.14-3.98,6.15-6.03,.36-.36,.76-1.19,.6-1.44-.27-.41-.98-.71-1.51-.72" fill="url(#linear-gradient-5)"/><path d="M16.31,53.6c.69-.73,.63-1.9-.14-2.54-1.87-1.57-3.77-3.15-5.66-4.75-1.5-1.27-3.07-2.46-4.43-3.86-1.59-1.62-3.47-1.02-5.24-.89-.88,.07-1.08,.83-.58,1.86,.19,.39,.54,1.2,.72,1.59,2.34,4.84,4.62,9.44,6.95,14.29,.92,1.92,1.08,1.94,2.51,.44,1.93-2.02,3.86-4.05,5.86-6.15Z" fill="url(#linear-gradient-6)"/><path d="M41.59,74.09c-1.53,0-3.06-.06-4.58,.02-1.1,.06-1.74-.29-2.17-1.36-.63-1.55-1.45-3.02-2.17-4.54-.35-.73-.83-.94-1.68-.98-1.15,0-2.1-.02-3.15,.06-1.17,.08-1.51,.66-1.01,1.74,1.49,3.22,3.04,6.41,4.54,9.62,.39,.83,.96,1.21,1.9,1.21,4.44,.02,8.88,.07,13.32,.13,1.15,.02,1.67-.52,1.67-1.64,0-4.83,.42-4.21-3.77-4.24" fill="url(#linear-gradient-7)"/><path d="M49.29,69.67c2.25,0,4.49-.03,6.74,.01,1.1,.02,1.59-.46,1.6-1.53,.03-5.04,.44-4.2-3.83-4.25-2.72-.03-5.45-.04-8.17,0-.8,.01-1.33-.19-1.74-.93-.63-1.13-1.36-2.2-2.06-3.29-.46-.74-.94-.76-1.63-.19-3.63,3.01-3.55,3.04-1.09,6.99,1.43,2.3,2.51,3.24,5.88,3.16" fill="url(#linear-gradient-8)"/></g></g></svg>