<?xml version="1.0" encoding="UTF-8"?><svg id="Layer_1" xmlns="http://www.w3.org/2000/svg" xmlns:xlink="http://www.w3.org/1999/xlink" viewBox="0 0 32 32"><defs><linearGradient id="linear-gradient" x1="14.71" y1="10.02" x2="14.71" y2="6.41" gradientUnits="userSpaceOnUse"><stop offset="0" stop-color="#a458fa"/><stop offset=".16" stop-color="#9f55f3"/><stop offset=".4" stop-color="#924fdf"/><stop offset=".69" stop-color="#7d44bf"/><stop offset="1" stop-color="#623695"/></linearGradient><linearGradient id="linear-gradient-2" x1="7.83" y1="15.46" x2="7.83" y2="7.67" xlink:href="#linear-gradient"/><linearGradient id="linear-gradient-3" x1="19.45" y1="5.11" x2="19.45" y2="0" xlink:href="#linear-gradient"/><linearGradient id="linear-gradient-4" x1="23.47" y1="8.37" x2="23.47" y2="4.13" xlink:href="#linear-gradient"/><linearGradient id="linear-gradient-5" x1="14.71" y1="2251.42" x2="14.71" y2="2247.81" gradientTransform="translate(0 2273.4) scale(1 -1)" xlink:href="#linear-gradient"/><linearGradient id="linear-gradient-6" x1="7.83" y1="2256.86" x2="7.83" y2="2249.07" gradientTransform="translate(0 2273.4) scale(1 -1)" xlink:href="#linear-gradient"/><linearGradient id="linear-gradient-7" x1="19.45" y1="2246.5" x2="19.45" y2="2241.4" gradientTransform="translate(0 2273.4) scale(1 -1)" xlink:href="#linear-gradient"/><linearGradient id="linear-gradient-8" x1="23.47" y1="2249.77" x2="23.47" y2="2245.53" gradientTransform="translate(0 2273.4) scale(1 -1)" xlink:href="#linear-gradient"/></defs><g><path d="M16.12,10.01c-1.03,0-2.06,.02-3.09-.02-.29-.01-.64-.14-.85-.34-.84-.79-1.64-1.61-2.43-2.44-.13-.13-.26-.4-.2-.52,.06-.14,.33-.26,.5-.26,2.16-.02,4.32-.03,6.47-.02,.22,0,.49,.12,.65,.28,.84,.79,1.66,1.59,2.46,2.41,.14,.15,.31,.48,.24,.57-.11,.16-.39,.28-.61,.29" fill="url(#linear-gradient)"/><path d="M11,10.56c.28,.29,.25,.76-.06,1.02-.75,.63-1.51,1.26-2.26,1.9-.6,.51-1.23,.99-1.77,1.54-.63,.65-1.39,.41-2.1,.35-.35-.03-.43-.33-.23-.75,.07-.15,.22-.48,.29-.63,.94-1.94,1.85-3.78,2.78-5.72,.37-.77,.43-.78,1-.18,.77,.81,1.54,1.62,2.34,2.46Z" fill="url(#linear-gradient-2)"/><path d="M21.11,2.36c-.61,0-1.22,.03-1.83,0-.44-.02-.7,.12-.87,.54-.25,.62-.58,1.21-.87,1.82-.14,.29-.33,.38-.67,.39-.46,0-.84,0-1.26-.02-.47-.03-.6-.26-.41-.69,.6-1.29,1.22-2.56,1.82-3.85,.16-.33,.38-.48,.76-.49,1.78,0,3.55-.03,5.33-.05,.46,0,.67,.21,.67,.66,0,1.93,.17,1.68-1.51,1.69" fill="url(#linear-gradient-3)"/><path d="M24.19,4.13c.9,0,1.8,.01,2.69,0,.44,0,.64,.18,.64,.61,.01,2.01,.17,1.68-1.53,1.7-1.09,.01-2.18,.02-3.27,0-.32,0-.53,.08-.7,.37-.25,.45-.55,.88-.82,1.32-.19,.29-.38,.3-.65,.08-1.45-1.2-1.42-1.21-.44-2.8,.57-.92,1-1.3,2.35-1.27" fill="url(#linear-gradient-4)"/></g><g><path d="M16.12,21.99c-1.03,0-2.06-.02-3.09,.02-.29,.01-.64,.14-.85,.34-.84,.79-1.64,1.61-2.43,2.44-.13,.13-.26,.4-.2,.52,.06,.14,.33,.26,.5,.26,2.16,.02,4.32,.03,6.47,.02,.22,0,.49-.12,.65-.28,.84-.79,1.66-1.59,2.46-2.41,.14-.15,.31-.48,.24-.57-.11-.16-.39-.28-.61-.29" fill="url(#linear-gradient-5)"/><path d="M11,21.44c.28-.29,.25-.76-.06-1.02-.75-.63-1.51-1.26-2.26-1.9-.6-.51-1.23-.99-1.77-1.54-.63-.65-1.39-.41-2.1-.35-.35,.03-.43,.33-.23,.75,.07,.15,.22,.48,.29,.63,.94,1.94,1.85,3.78,2.78,5.72,.37,.77,.43,.78,1,.18,.77-.81,1.54-1.62,2.34-2.46Z" fill="url(#linear-gradient-6)"/><path d="M21.11,29.64c-.61,0-1.22-.03-1.83,0-.44,.02-.7-.12-.87-.54-.25-.62-.58-1.21-.87-1.82-.14-.29-.33-.38-.67-.39-.46,0-.84,0-1.26,.02-.47,.03-.6,.26-.41,.69,.6,1.29,1.22,2.56,1.82,3.85,.16,.33,.38,.48,.76,.49,1.78,0,3.55,.03,5.33,.05,.46,0,.67-.21,.67-.66,0-1.93,.17-1.68-1.51-1.69" fill="url(#linear-gradient-7)"/><path d="M24.19,27.87c.9,0,1.8-.01,2.69,0,.44,0,.64-.18,.64-.61,.01-2.01,.17-1.68-1.53-1.7-1.09-.01-2.18-.02-3.27,0-.32,0-.53-.08-.7-.37-.25-.45-.55-.88-.82-1.32-.19-.29-.38-.3-.65-.08-1.45,1.2-1.42,1.21-.44,2.8,.57,.92,1,1.3,2.35,1.27" fill="url(#linear-gradient-8)"/></g></svg>